<?xml version="1.0" standalone="no"?>
<!DOCTYPE svg PUBLIC "-//W3C//DTD SVG 20010904//EN"
 "http://www.w3.org/TR/2001/REC-SVG-20010904/DTD/svg10.dtd">
<svg version="1.0" xmlns="http://www.w3.org/2000/svg"
 width="260.000000pt" height="260.000000pt" viewBox="0 0 260.000000 260.000000"
 preserveAspectRatio="xMidYMid meet">
<metadata>
Created by potrace 1.11, written by Peter Selinger 2001-2013
</metadata>
<g transform="translate(0.000000,260.000000) scale(0.100000,-0.100000)"
fill="#000000" stroke="none">
<path d="M1189 2285 c-2 -1 -26 -6 -53 -9 -131 -18 -318 -101 -442 -197 -119
-91 -238 -240 -298 -372 -28 -62 -62 -164 -71 -212 -3 -16 -8 -46 -12 -65 -9
-46 -9 -232 0 -295 44 -328 262 -624 562 -764 99 -47 125 -56 195 -72 30 -6
69 -15 85 -19 52 -12 256 -9 336 5 478 85 832 505 832 990 1 494 -340 907
-826 999 -63 12 -298 21 -308 11z"/>
</g>
</svg>
