<svg xmlns="http://www.w3.org/2000/svg" viewBox="0 0 49.634697 49.6309013"><path d="M6.373 0h36.892c3.504 0 6.37 2.866 6.37 6.371v36.892c0 3.504-2.866 6.368-6.37 6.368H6.373C2.868 49.63 0 46.767 0 43.263V6.37C0 2.866 2.868 0 6.373 0zm29.786 5.512a2.242 2.242 0 0 0-2.236 2.238v5.346a2.24 2.24 0 0 0 2.236 2.236h5.609a2.241 2.241 0 0 0 2.234-2.236V7.75a2.243 2.243 0 0 0-2.234-2.238h-5.61zm7.864 15.476h-4.366c.414 1.353.637 2.78.637 4.262 0 8.253-6.909 14.947-15.43 14.947-8.519 0-15.428-6.694-15.428-14.947 0-1.483.226-2.91.638-4.262H5.518v20.968c0 1.086.886 1.97 1.971 1.97h34.563a1.973 1.973 0 0 0 1.971-1.97V20.988zM24.864 15.05c-5.503 0-9.967 4.323-9.967 9.66 0 5.332 4.464 9.659 9.967 9.659 5.506 0 9.97-4.327 9.97-9.658 0-5.338-4.464-9.66-9.97-9.66z"/></svg>