<svg xmlns="http://www.w3.org/2000/svg" viewBox="0 0 679.95007 283.83994"><path d="M322.98 270.03c-1.572-1.658-3.145-3.364-4.77-5.02-12.887-13.141-28.212-22.765-44.657-30.714-24.636-11.908-50.571-19.65-77.619-23.617-8.263-1.212-16.595-1.98-24.91-2.818-2.449-.246-4.944-.038-7.792-.038-.441 1.275-.99 2.706-1.433 4.168a94.28 94.28 0 0 1-11.825 25.066c-4.261 6.393-9.463 11.821-16.286 15.538-4.575 2.493-9.421 3.927-14.666 3.297-6.03-.724-10.058-4.234-12.204-9.75-2.86-7.349-2.509-14.841-.3-22.3 1.729-5.835 4.79-11.005 8.212-15.964 7.955-11.528 18.105-20.896 29.091-29.44 3.401-2.645 6.765-5.346 10.016-8.17.897-.78 1.877-2.1 1.88-3.175.037-12.107-.108-24.215-.929-36.577-.616.724-1.275 1.416-1.842 2.176-8.558 11.473-18.11 21.996-29.648 30.558-2.493 1.85-5.226 3.545-8.097 4.688-7.454 2.967-13.347-.475-14.727-8.362-1.52-8.685-.134-17.211 1.878-25.617 1.61-6.722 3.628-13.35 5.633-19.97.557-1.838 1.534-3.621 2.637-5.207 2.18-3.132 5.499-4.061 8.982-2.804 3.405 1.23 5.632 4.192 5.28 7.824-.22 2.281-.959 4.595-1.883 6.712-4.145 9.487-7.43 19.242-9.444 29.4-.429 2.158-.587 4.407-.56 6.61.039 3.277 1.351 3.973 4.168 2.158 2.076-1.337 4.005-2.936 5.861-4.575 7.282-6.424 13.578-13.748 19.457-21.454 5.39-7.063 10.817-14.098 16.338-21.058.923-1.164 2.278-2.283 3.658-2.729 3.195-1.032 6.255.915 6.871 4.539.72 4.233 1.225 8.546 1.304 12.834.144 7.704-.101 15.416-.18 23.125-.012 1.255 0 2.51 0 4.372 1.02-.75 1.574-1.03 1.96-1.459 4.108-4.565 8.152-9.187 12.3-13.715 1.296-1.415 1.313-2.968 1.298-4.71-.077-8.62-.389-17.254-.008-25.855.966-21.807 4.78-43.065 13.335-63.298 3.118-7.374 6.837-14.424 12.013-20.564 2.255-2.676 4.85-5.134 7.6-7.299 1.681-1.323 3.866-2.312 5.97-2.736 5.632-1.138 9.84 1.088 11.811 6.55 1.174 3.25 1.825 6.834 1.948 10.295.427 12.02-2.257 23.617-5.577 35.061-4.524 15.594-10.307 30.711-18.221 44.92-3.3 5.924-7.083 11.587-10.784 17.28-1.616 2.486-2.652 5.054-2.733 8.026-.224 8.258-.042 16.48 2.587 24.418.733 2.216 1.671 4.408 2.836 6.427 2.257 3.916 5.28 5.049 9.634 3.704 1.598-.494 3.163-1.257 4.577-2.158 6.953-4.43 12.215-10.589 17.01-17.155.775-1.063.958-2.667 1.117-4.054 1.423-12.412 5.435-23.94 12.244-34.375 2.474-3.791 5.59-7.242 8.815-10.444 3.935-3.905 8.827-5.93 14.539-5.675 5.608.25 9.547 3.85 10.127 9.458.415 4.002-.282 7.826-2.071 11.415-5.911 11.856-14.137 21.571-25.918 28.025-.914.5-1.973 1.495-2.162 2.423-.894 4.383-1.125 8.823.285 13.17 1.33 4.096 4.092 6.549 8.439 7.17 5.2.744 10.143-.116 14.902-2.227 7.075-3.138 12.924-7.901 17.725-13.892 2.77-3.458 5.15-7.227 7.749-10.824.988-1.369 1.884-2.97 3.222-3.865 1.005-.674 2.744-.758 3.988-.442 1.563.396 1.354 2.048 1.167 3.343-.128.89-.348 1.828-.78 2.604-8.693 15.643-20.803 27.36-38.16 32.977-4.914 1.59-9.988 2.007-15.107 1.651-7.78-.54-13.053-4.761-16.445-11.578-.57-1.145-1.034-2.341-1.694-3.85-.988 1.054-1.712 1.911-2.522 2.677-4.169 3.942-8.303 7.923-12.575 11.751-1.44 1.292-3.175 2.318-4.903 3.218-10.444 5.44-18.686 3.615-24.736-6.462-3.694-6.153-5.586-12.902-6.906-19.866-.266-1.404-.557-2.805-.906-4.556-.682.466-1.223.718-1.612 1.119-4.727 4.879-9.405 9.805-14.161 14.656-1.136 1.158-1.966 2.266-2.08 4.007-.685 10.574-2.216 21.03-4.653 31.35-.172.73-.17 1.5-.3 2.753 2.812-.404 5.35-.716 7.87-1.14a462.46 462.46 0 0 1 62.348-6.17c20.24-.632 40.5-1.364 60.739-1.115 23.898.295 47.794 1.399 71.674 2.523 17.615.83 35.208 2.177 52.801 3.437 14.334 1.026 28.643 2.396 42.98 3.38 29.61 2.03 59.242 2.913 88.922 1.472 15.551-.755 31.012-2.196 46.329-4.955 11.843-2.134 23.451-5.153 34.418-10.282 10.377-4.852 18.544-11.99 23.88-22.295 2.942-5.68 3.97-11.598 3.11-17.832-.866-6.28-4.164-10.998-10.114-13.404-6.382-2.581-12.31-1.02-17.755 2.792-.686.48-1.172 1.364-1.544 2.158-6.84 14.576-16.473 26.89-29.507 36.436-3.076 2.253-6.426 3.996-10.218 4.768-5.376 1.096-10.079-.077-14.047-3.987-3.825-3.768-6.139-8.419-7.888-13.385-1.068-3.035-1.946-6.136-3.219-10.195-1.198 1.561-1.904 2.625-2.751 3.56-4.147 4.582-8.82 8.548-14.154 11.686-3.427 2.016-7.097 3.27-11.148 3.21-4.086-.061-7.3-1.7-9.628-5.08-2.365-3.433-3.587-7.292-3.764-11.387-.236-5.476-.24-10.966-.198-16.45.036-4.701.34-9.4.392-14.103.016-1.476-.403-2.957-.743-5.238-1.873 1.232-3.345 1.829-4.296 2.891-3.563 3.983-7.235 7.917-10.36 12.235-8.453 11.68-15.311 24.292-21.105 37.494a25.553 25.553 0 0 1-3.187 5.352c-.843 1.086-2.098 2.027-3.366 2.578-3.579 1.555-6.371-.162-6.476-4.08-.101-3.78.192-7.57.32-11.356.035-.988.105-1.976.19-3.557-1.664 1.267-2.89 2.18-4.093 3.119-7.11 5.545-14.924 9.7-23.89 11.123a48.264 48.264 0 0 1-11.699.39c-5.646-.498-9.969-3.638-13.19-8.25-2.453-3.509-3.596-7.504-4.178-11.694-.155-1.118-.36-2.23-.593-3.648-1.382.495-2.468.834-3.515 1.266-10.032 4.146-20.322 7.49-30.89 9.976-1.522.358-3.064.718-4.51 1.293-12.818 5.092-25.992 8.665-39.654 9.344-.36.33-.613.466-.729.678-3.425 6.286-8.23 8.291-15.342 6.453-1.923-.497-2.918-1.554-2.778-3.612.327-4.82.454-9.66.946-14.462 1.395-13.642 2.817-27.283 4.441-40.899 2.553-21.406 6.269-42.624 10.721-63.715.186-.881.267-1.785.475-3.217-4.45.317-8.68.545-12.894.945-2.986.284-5.942.87-8.925 1.187-1.702.181-3.542.244-4.092-1.998-.467-1.902.704-3.755 3.132-4.18 6.812-1.19 13.664-2.153 20.504-3.18 1.277-.192 2.572-.266 4.125-.421 1.07-3.94 2.21-7.79 3.155-11.688 1.787-7.367 6.767-11.2 13.858-12.692 2.005-.421 4.105-.75 6.41.764-2.584 7.347-4.165 14.924-5.268 23.207 2.179 0 3.974-.035 5.767.006 9.554.223 19.042 1.101 28.374 3.223 4.984 1.133 9.805 2.78 14.051 5.752 5.7 3.989 7.165 9.215 3.752 15.326-1.757 3.145-4.1 6.091-6.67 8.63-8.967 8.856-19.776 14.873-31.388 19.542-1.082.435-2.185.819-3.944 1.474 1.258.553 1.947.957 2.69 1.168 7.795 2.211 15.615 4.431 22.683 8.48 4.052 2.321 8.055 4.917 11.543 7.997 7.646 6.752 8.74 16.077 3.343 24.766-1.095 1.762-2.399 3.396-3.325 5.666l14.259-5.458c.933-3.914 1.649-7.634 2.715-11.25 3.445-11.676 8.554-22.451 17.463-31.066 4.294-4.151 9.233-6.75 15.415-6.511 5.802.224 9.756 3.913 10.273 9.73.332 3.732-.247 7.332-1.879 10.68-5.865 12.037-14.135 21.905-26.066 28.368-1.218.66-2.353 1.307-2.357 2.791-.011 4.02-.375 8.114.265 12.039.798 4.897 4.214 7.62 9.24 8.157 4.926.525 9.634-.274 14.14-2.278 7.827-3.483 14.091-8.916 19.215-15.695.746-.988 1.208-2.303 1.456-3.537 2.956-14.719 5.885-29.444 8.729-44.186.723-3.75 2.172-6.982 5.334-9.245 1.052-.753 2.18-1.593 3.396-1.894 5.215-1.293 9.212-.497 8.997 6.364-.113 3.61-.893 7.252-1.797 10.77-.972 3.781-2.361 7.465-3.712 11.139-2.264 6.154-3.5 12.52-3.87 19.298.818-1.08 1.669-2.135 2.447-3.242 5.644-8.029 11.535-15.864 18.703-22.62 2.173-2.049 4.484-4.053 7.028-5.585 5.095-3.07 9.01-1.666 11.306 3.812 2.07 4.937 2.168 10.198 2.081 15.425-.148 8.882-.508 17.76-.7 26.642-.04 1.814.04 3.691.468 5.44.956 3.902 3.392 5.507 7.274 4.588 2.1-.497 4.242-1.434 5.99-2.693 5.465-3.936 9.788-9.02 13.518-14.589.59-.882.91-2.205.792-3.262-1.922-17.268-1.136-34.43 1.779-51.526.084-.495.01-1.017.01-1.874-1.167 0-2.29.036-3.41-.007-2.96-.112-4.289-1.144-4.76-3.643-.479-2.536.54-4.798 2.8-5.876 1.05-.501 2.203-.811 3.336-1.102 1.127-.29 2.287-.447 3.64-.7 1.047-3.217 1.944-6.49 3.168-9.635 3.026-7.777 6.008-15.581 9.385-23.208 2.387-5.39 5.844-10.198 9.979-14.45 2.916-2.998 6.353-4.931 10.654-5.187 3.402-.203 5.968 1.098 7.276 4.173.955 2.247 1.734 4.691 1.956 7.106 1.014 11.03-.224 21.905-2.738 32.659-.26 1.107-.444 2.233-.769 3.885 2.322-.31 4.215-.605 6.118-.805 2.074-.217 4.163-.519 6.233-.44 1 .038 2.391.611 2.856 1.39.773 1.295.386 2.899-.958 3.814-1.165.794-2.48 1.462-3.823 1.88-3.488 1.081-6.998 2.134-10.56 2.918-1.879.414-2.88 1.148-3.48 3.059-4.794 15.23-12.408 29.007-21.91 41.773-1.377 1.852-2.343 3.735-2.232 6.094.394 8.357.809 16.724 3.02 24.84.818 3 1.956 5.974 3.39 8.728 1.976 3.79 4.734 4.937 8.847 3.612 2.554-.823 5.047-2.15 7.245-3.707 5.37-3.805 9.772-8.654 13.735-13.883 1.893-2.497 3.935-4.953 5.371-7.709 2.633-5.054 6.73-8.312 11.449-11.264 14.878-9.31 33.086-1.424 36.197 15.849 2.008 11.144-.598 21.12-6.958 30.45-7.6 11.146-17.837 18.935-29.75 24.802-13.298 6.549-27.338 10.998-41.635 14.732-18.596 4.858-37.471 8.337-56.482 10.983-18.494 2.574-37.042 4.785-55.6 6.863-12.33 1.38-24.716 2.25-37.078 3.338-27.73 2.44-55.35 5.592-82.37 12.644-3.029.79-6.03 1.706-9.006 2.676-10.906 3.55-15.162 5.8-25.634 13.44zm16.988-105.646c4.092.42 7.732-.727 11.396-1.451 11.045-2.184 21.905-5.084 31.93-10.316 4.005-2.09 7.865-4.711 11.218-7.728 4.722-4.25 5.294-9.973 1.711-15.232-1.872-2.75-4.33-5.302-7.03-7.233-3.258-2.329-6.882-4.409-10.654-5.7-7.883-2.7-15.946-4.887-23.98-7.123-2.833-.789-5.796-1.106-8.953-1.685-2.885 18.964-6.955 37.345-5.638 56.468zm7.379-65.805c10.932-2.213 25.684-7.159 34.335-11.782 4.01-2.143 7.901-4.61 11.495-7.386 1.977-1.527 3.614-3.81 4.717-6.086 1.933-3.987.929-7.167-2.9-9.347-2.801-1.595-5.845-3.128-8.965-3.724-7.157-1.37-14.412-2.275-21.657-3.11-3.067-.354-6.208-.06-9.86-.06l-7.165 41.495zM145.2 219.49c.87-2.458 1.469-5.032 2.549-7.389 1.042-2.275 1.055-4.748 1.791-7.097 2.566-8.191 4.152-16.666 4.996-25.5-.756.143-1.067.108-1.238.247-9.533 7.736-19.014 15.538-26.716 25.203-4.734 5.94-8.908 12.232-11.358 19.518-1.695 5.04-2.199 10.19-1.383 15.44 1.143 7.348 6.536 9.957 12.758 5.978 2.492-1.594 4.726-3.7 6.772-5.861M209.123 59.09c-3.396 12.178-6.623 24.423-7.776 37.068-.492 5.4-.538 10.84-.787 16.262.318.03.635.062.953.093.238-.304.52-.584.708-.917 9.277-16.375 17.308-33.311 22.878-51.335 3.087-9.988 5.682-20.084 5.572-30.653-.024-2.3.333-5.166-2.354-6.092-2.7-.932-4.598 1.18-6.255 3.089-.597.687-1.203 1.403-1.619 2.203-1.621 3.116-3.506 6.15-4.673 9.435m385.832-2.356c-3.234.083-4.841 1.654-6.099 3.472a56.525 56.525 0 0 0-4.172 7.047c-4.356 8.8-7.248 18.115-9.413 27.667-.187.822-.238 1.674-.419 3.008 4.811-.54 9.186-1 13.551-1.54 1.359-.167 2.298-.802 2.724-2.343 3.003-10.848 5.061-21.825 4.753-33.135-.037-1.351-.583-2.689-.926-4.176zM256.1 138.155c8.574-5.49 15.183-12.621 19.2-21.98.406-.946.765-1.981.825-2.993.14-2.383 1.05-5.105-1.648-6.703-1.808-1.072-4.43.124-6.52 3.043-6.14 8.58-9.65 18.293-11.857 28.633zm178.103.596c8.452-4.994 16.617-14.178 19.598-21.963.814-2.127 1.224-4.541 1.215-6.821-.013-3.676-2.872-5.015-5.836-2.796-1.418 1.061-2.774 2.486-3.572 4.046-2.89 5.657-5.685 11.374-8.207 17.202-1.321 3.051-2.002 6.38-3.198 10.332zM580.406 87.56c-2.215 7.67-3.756 24.983-2.607 29.82 6.715-9.866 12.043-19.998 15.928-31.715l-13.321 1.895z"/><path d="M33.964 120.774c1.651-2.094 2.766-3.49 3.863-4.901 16.832-21.66 33.661-43.321 50.494-64.98.802-1.031 1.57-2.097 2.458-3.05 1.602-1.717 3.6-2.605 5.976-2.288 3.353.447 4.582 2.352 3.338 5.516-.854 2.172-1.928 4.313-3.234 6.244-5.047 7.46-9.965 15.029-15.412 22.191-11.544 15.179-23.396 30.122-35.103 45.177-1.916 2.464-3.734 5.006-5.784 7.764.998.85 1.798 1.645 2.706 2.286 13.157 9.282 27.727 15.57 43.095 20.088 2.343.69 4.895.718 7.361.93 5.641.487 6.51 2.951 4.176 7.974-1.288 2.774-3.736 4.485-6.79 4.677-2.436.153-5.088.207-7.334-.58-9.593-3.36-19.222-6.696-28.544-10.722-8.005-3.458-15.609-7.844-23.395-11.81-.327-.166-.708-.228-1.56-.493-.597 3.405-1.41 6.658-1.7 9.957-.728 8.313-1.845 16.598-1.188 25.005.48 6.145-4.204 10.698-10.417 10.664-2.761-.014-4.166-.972-4.808-3.63-.332-1.375-.36-2.846-.366-4.275-.163-43.455 4.89-86.24 16.593-128.155 1.19-4.263 2.731-8.434 4.258-12.593 1.372-3.74 3.998-5.374 8.17-5.218 8.228.306 10.446 2.703 8.718 10.692-.88 4.07-2.158 8.066-3.429 12.04-5.863 18.338-9.64 37.119-12.101 56.186-.134 1.035-.185 2.082-.24 3.125-.02.381.064.767.199 2.18z"/></svg>