<svg xmlns="http://www.w3.org/2000/svg" viewBox="0 0 50.2393112 40.8272018"><path d="M50.24 4.833a20.581 20.581 0 0 1-5.92 1.623A10.328 10.328 0 0 0 48.851.753a20.605 20.605 0 0 1-6.543 2.503A10.296 10.296 0 0 0 34.783 0c-5.692 0-10.307 4.616-10.307 10.307 0 .81.09 1.594.266 2.348-8.566-.428-16.16-4.53-21.245-10.77A10.281 10.281 0 0 0 2.103 7.07c0 3.575 1.818 6.732 4.583 8.578a10.264 10.264 0 0 1-4.667-1.289v.13c0 4.993 3.553 9.16 8.267 10.107a10.236 10.236 0 0 1-4.654.176 10.32 10.32 0 0 0 9.626 7.16 20.676 20.676 0 0 1-12.801 4.412c-.831 0-1.65-.051-2.457-.145a29.195 29.195 0 0 0 15.802 4.63c18.958 0 29.325-15.704 29.325-29.326 0-.445-.012-.89-.028-1.336a20.993 20.993 0 0 0 5.14-5.333z"/></svg>