<svg version="1.1" id="Layer_1" xmlns="http://www.w3.org/2000/svg" xmlns:xlink="http://www.w3.org/1999/xlink" x="0px" y="0px"
	 viewBox="0 0 49.634697 49.6309013" enable-background="new 0 0 49.634697 49.6309013" xml:space="preserve">
<path d="M6.3729997,0h36.8915977c3.5043983,0,6.3700981,2.8663001,6.3700981,6.3710999v36.8915977
	c0,3.5039024-2.8656998,6.3682022-6.3700981,6.3682022H6.3729997C2.8680999,49.6309013,0,46.7666016,0,43.2626991V6.3710999
	C0,2.8663001,2.8680999,0,6.3729997,0z M36.158699,5.5123c-1.2314987,0-2.2353935,1.0078001-2.2353935,2.2377v5.3462
	c0,1.2305002,1.0038948,2.2358999,2.2353935,2.2358999h5.6092987c1.2285995,0,2.2344017-1.0053997,2.2344017-2.2358999V7.75
	c0-1.2298999-1.0058022-2.2377-2.2344017-2.2377H36.158699z M44.0233994,20.9883003h-4.3666992
	c0.4141006,1.3526001,0.6376991,2.7787991,0.6376991,4.2616997c0,8.2529984-6.9091988,14.9468002-15.4302006,14.9468002
	c-8.5189991,0-15.4286985-6.6938019-15.4286985-14.9468002c0-1.4829006,0.2261-2.9090996,0.6381998-4.2616997H5.5179996v20.9678001
	c0,1.0858994,0.8863072,1.9692001,1.9712,1.9692001h34.5629997c1.0863991,0,1.971199-0.8833008,1.971199-1.9692001V20.9883003z
	 M24.8641987,15.0502996c-5.5033989,0-9.9667988,4.3228006-9.9667988,9.6602011
	c0,5.3319988,4.4633999,9.6581974,9.9667988,9.6581974c5.5059013,0,9.9693012-4.3261986,9.9693012-9.6581974
	C34.8334999,19.3731003,30.3701,15.0502996,24.8641987,15.0502996z"/>
</svg>
