<?xml version="1.0" encoding="utf-8"?>
<!-- Generator: Adobe Illustrator 19.2.1, SVG Export Plug-In . SVG Version: 6.00 Build 0)  -->
<svg version="1.1" id="Layer_1" xmlns="http://www.w3.org/2000/svg" xmlns:xlink="http://www.w3.org/1999/xlink" x="0px" y="0px"
	 viewBox="0 0 679.95007 283.83994" enable-background="new 0 0 679.95007 283.83994" xml:space="preserve">
<path d="M322.98019,270.02963c-1.5723-1.65747-3.14511-3.36407-4.76938-5.0202
	c-12.88794-13.14066-28.21298-22.76418-44.65829-30.71323c-24.6357-11.90796-50.57048-19.65077-77.61821-23.61761
	c-8.26375-1.21193-16.59546-1.97913-24.90947-2.81709c-2.44971-0.24693-4.9453-0.03801-7.79308-0.03801
	c-0.44086,1.27454-0.98917,2.70518-1.43271,4.16759c-2.71094,8.93779-6.64648,17.29875-11.82468,25.06641
	c-4.26149,6.39256-9.46347,11.82094-16.28656,15.53795c-4.57509,2.49243-9.42078,3.92624-14.66567,3.29639
	c-6.02958-0.72421-10.05836-4.2334-12.20418-9.74907c-2.85921-7.34929-2.50895-14.84212-0.29957-22.30116
	c1.72812-5.83429,4.78907-11.00488,8.21131-15.96396c7.95502-11.52736,18.10487-20.89587,29.09153-29.44014
	c3.40089-2.64488,6.76511-5.34505,10.01544-8.17027c0.8969-0.77968,1.87689-2.0993,1.88023-3.17415
	c0.03758-12.10706-0.10797-24.21465-0.92853-36.57748c-0.61638,0.72401-1.27544,1.41624-1.8428,2.17683
	c-8.55801,11.47264-18.10966,21.9957-29.64735,30.5573c-2.49364,1.8504-5.22647,3.54507-8.09734,4.68803
	c-7.45367,2.96758-13.34723-0.47432-14.72701-8.36221c-1.51911-8.68469-0.13368-17.21101,1.87858-25.61649
	c1.60921-6.72196,3.62731-13.35089,5.63282-19.96992c0.55698-1.83842,1.53337-3.62131,2.63684-5.20737
	c2.17911-3.13205,5.49852-4.06123,8.982-2.80369c3.40525,1.2293,5.63213,4.19173,5.28026,7.82394
	c-0.22102,2.28146-0.95911,4.59538-1.8837,6.71192c-4.14451,9.48755-7.42881,19.24242-9.44397,29.39941
	c-0.42828,2.1586-0.58643,4.40732-0.56011,6.61092c0.03911,3.27643,1.35183,3.97224,4.16801,2.15811
	c2.07613-1.33742,4.00494-2.9368,5.86189-4.57527c7.2813-6.4243,13.57702-13.74817,19.45686-21.45442
	c5.38899-7.06297,10.81654-14.09781,16.33725-21.05773c0.92336-1.16414,2.27831-2.28283,3.65804-2.7285
	c3.19559-1.03218,6.25534,0.91418,6.87181,4.53835c0.71996,4.23273,1.22414,8.54607,1.30392,12.8341
	c0.14343,7.70441-0.10143,15.41602-0.17949,23.1246c-0.01268,1.25543-0.00177,2.51106-0.00177,4.37296
	c1.02177-0.75009,1.57486-1.0298,1.96141-1.45943c4.1076-4.56454,8.1517-9.18687,12.29913-13.71461
	c1.29625-1.4151,1.31367-2.96852,1.29813-4.71059c-0.07706-8.61893-0.3885-17.25335-0.00761-25.85532
	c0.96553-21.80669,4.78003-43.06465,13.33478-63.29753c3.11781-7.37387,6.83678-14.42402,12.01268-20.56415
	c2.25552-2.67566,4.85088-5.13369,7.60048-7.29853c1.68126-1.32371,3.86629-2.31193,5.96931-2.73676
	c5.63275-1.13781,9.84019,1.0888,11.81155,6.54982c1.17374,3.25132,1.82486,6.83477,1.94777,10.29599
	c0.42688,12.01983-2.25671,23.61618-5.577,35.06072c-4.52415,15.59412-10.30652,30.71142-18.22101,44.91914
	c-3.30046,5.9249-7.08289,11.58765-10.78362,17.28028c-1.61636,2.48631-2.65245,5.05495-2.73314,8.02687
	c-0.2242,8.25729-0.04189,16.47884,2.58672,24.4174c0.73364,2.21579,1.6718,4.40866,2.83591,6.42769
	c2.25758,3.91554,5.28105,5.04807,9.63478,3.70308c1.59802-0.49361,3.1627-1.25687,4.5766-2.15768
	c6.95271-4.42953,12.21452-10.58858,17.00916-17.15527c0.77574-1.0625,0.95839-2.66632,1.11758-4.05405
	c1.42361-12.41199,5.43483-23.93867,12.24423-34.37438c2.47372-3.79114,5.58974-7.24265,8.81499-10.44367
	c3.93524-3.90565,8.82709-5.93083,14.53882-5.67567c5.60818,0.25056,9.54675,3.84943,10.12759,9.45847
	c0.41437,4.0014-0.2821,7.82565-2.07144,11.41461c-5.9111,11.85643-14.13739,21.57156-25.9184,28.02477
	c-0.91302,0.50008-1.97266,1.49529-2.16191,2.42381c-0.89316,4.38205-1.12491,8.82269,0.28555,13.16899
	c1.32939,4.09641,4.09209,6.54932,8.43855,7.17072c5.20035,0.74344,10.14291-0.11617,14.90262-2.22734
	c7.07516-3.13824,12.92325-7.90134,17.72461-13.89233c2.77078-3.45724,5.15027-7.22627,7.74899-10.82382
	c0.98843-1.36829,1.88364-2.96877,3.22208-3.86513c1.00549-0.67334,2.74387-0.75739,3.98804-0.44173
	c1.56314,0.39659,1.35428,2.04857,1.16733,3.34311c-0.12857,0.89-0.34827,1.82787-0.77963,2.60405
	c-8.69366,15.64334-20.80334,27.35956-38.16098,32.97693c-4.91342,1.5901-9.98804,2.00726-15.1069,1.65146
	c-7.77985-0.54076-13.05238-4.76155-16.44522-11.5787c-0.56941-1.14421-1.03345-2.34077-1.69347-3.84987
	c-0.98798,1.0545-1.71185,1.91153-2.52193,2.67743c-4.16887,3.94162-8.30313,7.92316-12.57481,11.75101
	c-1.44128,1.29152-3.17497,2.31735-4.90361,3.2177c-10.44356,5.43958-18.68596,3.61501-24.73611-6.46201
	c-3.69408-6.15279-5.58546-12.9023-6.90541-19.86559c-0.26627-1.40475-0.55688-2.80489-0.9059-4.55608
	c-0.68195,0.4657-1.22365,0.71794-1.61201,1.11874c-4.72719,4.87877-9.40559,9.8053-14.1617,14.65555
	c-1.13606,1.15855-1.96614,2.26639-2.07901,4.00743c-0.68544,10.5744-2.2168,21.03046-4.65352,31.34981
	c-0.17232,0.72971-0.16948,1.50076-0.30058,2.75337c2.8123-0.40448,5.35069-0.71635,7.87018-1.14037
	c20.6432-3.47333,41.43999-5.51697,62.34834-6.1701c20.24001-0.63216,40.49934-1.36349,60.73869-1.11433
	c23.89868,0.29427,47.79428,1.39832,71.67377,2.52251c17.61569,0.82927,35.2088,2.17735,52.80179,3.43686
	c14.33368,1.02617,28.64313,2.39667,42.97937,3.37991c29.61115,2.03075,59.24185,2.91319,88.92221,1.47229
	c15.55127-0.75504,31.0119-2.19574,46.32861-4.9552c11.84302-2.13367,23.45148-5.15265,34.41876-10.2813
	c10.37634-4.85249,18.54327-11.99019,23.88055-22.29575c2.94141-5.67966,3.96857-11.59781,3.10895-17.83186
	c-0.86584-6.28061-4.16339-10.99751-10.11346-13.40379c-6.38214-2.58104-12.30963-1.02061-17.75574,2.79205
	c-0.68597,0.48026-1.17157,1.36394-1.54395,2.15746c-6.83899,14.57643-16.47217,26.88963-29.50665,36.436
	c-3.07623,2.25294-6.42639,3.996-10.21771,4.76874c-5.37665,1.09601-10.07898-0.07697-14.04761-3.98714
	c-3.82452-3.76826-6.13867-8.41898-7.88721-13.38513c-1.06836-3.03458-1.94611-6.13631-3.21906-10.19481
	c-1.19843,1.56122-1.9046,2.6243-2.75171,3.55995c-4.14716,4.58156-8.81903,8.54829-14.15387,11.68631
	c-3.42719,2.01582-7.09723,3.26901-11.14734,3.20889c-4.08649-0.06073-7.30121-1.69916-9.62891-5.0795
	c-2.36426-3.43332-3.5863-7.29167-3.76312-11.38731c-0.23639-5.47595-0.24066-10.96593-0.19849-16.44867
	c0.03619-4.70206,0.34064-9.40182,0.39203-14.10403c0.01617-1.47613-0.40326-2.95702-0.74255-5.23745
	c-1.87354,1.23177-3.34546,1.82813-4.2962,2.89077c-3.56354,3.98277-7.23499,7.91663-10.36026,12.23484
	c-8.45334,11.67993-15.31122,24.29228-21.10522,37.4938c-0.83041,1.89201-1.92102,3.72256-3.18649,5.35223
	c-0.84366,1.08643-2.09814,2.0265-3.36621,2.57768c-3.57883,1.55548-6.37109-0.16159-6.47604-4.08009
	c-0.10129-3.7796,0.1915-7.56998,0.32083-11.35533c0.03378-0.9886,0.10376-1.97595,0.18909-3.55681
	c-1.66422,1.26649-2.88913,2.17923-4.09338,3.11839c-7.11035,5.54549-14.92386,9.70001-23.89047,11.12311
	c-3.83102,0.60799-7.83386,0.73181-11.69812,0.3907c-5.6456-0.49826-9.96854-3.63918-13.19077-8.2506
	c-2.4519-3.50894-3.59534-7.50441-4.17691-11.69373c-0.15527-1.11855-0.36081-2.23006-0.5929-3.64822
	c-1.38229,0.49481-2.4682,0.83344-3.51529,1.26616c-10.03247,4.14595-20.3219,7.48895-30.89062,9.9756
	c-1.52148,0.35802-3.06329,0.7179-4.50998,1.29268c-12.81772,5.09251-25.9913,8.66531-39.6532,9.34473
	c-0.36078,0.32877-0.61359,0.46599-0.72919,0.67801c-3.42493,6.28593-8.23013,8.29114-15.3425,6.45268
	c-1.9231-0.49706-2.91748-1.55351-2.77786-3.61205c0.32684-4.82022,0.45438-9.65947,0.94577-14.46204
	c1.39581-13.64163,2.81796-27.28259,4.44168-40.89854c2.5527-21.40629,6.26831-42.62482,10.72125-63.71568
	c0.186-0.88098,0.2666-1.78422,0.47476-3.21696c-4.45099,0.31762-8.68073,0.54508-12.89401,0.94526
	c-2.98572,0.28361-5.94196,0.8693-8.92551,1.18682c-1.70184,0.18114-3.54187,0.24441-4.09219-1.99773
	c-0.46695-1.90251,0.70462-3.75505,3.13226-4.17931c6.81198-1.19048,13.66394-2.15367,20.50397-3.18113
	c1.27734-0.19191,2.57242-0.266,4.12527-0.42097c1.0701-3.93937,2.2095-7.79015,3.15491-11.688
	c1.7868-7.36695,6.76709-11.20004,13.85809-12.69125c2.00507-0.42162,4.10483-0.74957,6.41061,0.76394
	c-2.58511,7.34668-4.16565,14.92336-5.26871,23.2069c2.1788,0,3.97363-0.03575,5.76672,0.00599
	c9.55417,0.22234,19.04224,1.10072,28.37415,3.22261c4.98459,1.13346,9.80511,2.78069,14.05148,5.75195
	c5.70041,3.98879,7.16476,9.21537,3.75156,15.32639c-1.75653,3.14488-4.10031,6.09077-6.67007,8.62904
	c-8.96713,8.85693-19.7756,14.87383-31.38791,19.54258c-1.08221,0.43512-2.18506,0.81895-3.94345,1.47455
	c1.25751,0.553,1.94653,0.9566,2.69012,1.1676c7.79413,2.21132,15.61496,4.43126,22.68243,8.47992
	c4.05237,2.3214,8.05496,4.91723,11.54318,7.9974c7.64566,6.75139,8.74008,16.07661,3.34259,24.76524
	c-1.09515,1.76292-2.39835,3.39656-3.32431,5.66615c4.77258-1.82677,9.54514-3.65353,14.2583-5.45757
	c0.93375-3.91386,1.64896-7.63383,2.71576-11.25009c3.44427-11.67555,8.55319-22.45142,17.46298-31.06635
	c4.29318-4.15117,9.23239-6.74917,15.41473-6.51072c5.80136,0.22376,9.75607,3.91331,10.27289,9.72983
	c0.3317,3.73241-0.24707,7.33208-1.87909,10.68114c-5.86511,12.03577-14.13538,21.90372-26.06592,28.36747
	c-1.21805,0.65997-2.35269,1.30664-2.3569,2.791c-0.01144,4.01897-0.37534,8.11404,0.2644,12.03819
	c0.79837,4.89777,4.2142,7.62105,9.24091,8.15701c4.92505,0.5251,9.63333-0.27339,14.13892-2.27797
	c7.82797-3.48267,14.09177-8.91583,19.21567-15.69502c0.74622-0.9873,1.20819-2.30301,1.45587-3.53618
	c2.95627-14.71941,5.8847-29.44471,8.72864-44.18617c0.72354-3.75048,2.17249-6.98267,5.33405-9.24532
	c1.05273-0.75338,2.17978-1.59258,3.39645-1.89416c5.2149-1.29267,9.21216-0.49725,8.99683,6.36471
	c-0.11325,3.60967-0.89337,7.25108-1.7973,10.76897c-0.97183,3.78196-2.36063,7.46569-3.71179,11.13919
	c-2.26364,6.15416-3.50064,12.52032-3.86911,19.29866c0.81726-1.07939,1.66821-2.13504,2.44632-3.24196
	c5.64441-8.02922,11.53491-15.86396,18.70267-22.62019c2.17346-2.04868,4.48438-4.05293,7.02863-5.5856
	c5.09424-3.06873,9.00958-1.66506,11.30597,3.81235c2.06964,4.9368,2.16803,10.19828,2.08069,15.42501
	c-0.14832,8.88219-0.50836,17.76068-0.70013,26.64243c-0.03918,1.81323,0.03931,3.69096,0.46802,5.43977
	c0.95654,3.90204,3.39233,5.50705,7.27454,4.58804c2.10028-0.49728,4.24139-1.43443,5.9895-2.69331
	c5.4646-3.93535,9.78821-9.02026,13.51776-14.58873c0.59058-0.88173,0.90967-2.20561,0.79199-3.26251
	c-1.92206-17.2673-1.13586-34.42973,1.77905-51.52521c0.08441-0.49512,0.01074-1.0172,0.01074-1.87423
	c-1.16748,0-2.29022,0.03545-3.41016-0.00687c-2.96075-0.11181-4.28931-1.14437-4.76086-3.64351
	c-0.47839-2.536,0.54132-4.79729,2.80151-5.8762c1.04901-0.50082,2.20203-0.81079,3.33502-1.10178
	c1.12671-0.28935,2.28748-0.44637,3.64026-0.70023c1.04645-3.21653,1.94342-6.48906,3.16742-9.63429
	c3.02667-7.77685,6.00861-15.58147,9.38538-23.20801c2.38672-5.39037,5.84357-10.19835,9.97888-14.45044
	c2.91565-2.99789,6.35278-4.93084,10.65448-5.18691c3.40204-0.20253,5.96783,1.09765,7.27563,4.17342
	c0.95526,2.24659,1.73407,4.69103,1.95599,7.10569c1.01392,11.02965-0.224,21.90521-2.73804,32.65858
	c-0.25903,1.1078-0.44409,2.23289-0.76868,3.88563c2.32172-0.30987,4.2146-0.60516,6.11731-0.80493
	c2.07397-0.21775,4.16357-0.519,6.23334-0.44024c0.99915,0.038,2.3913,0.61102,2.85565,1.38924
	c0.77325,1.29573,0.38617,2.89925-0.95752,3.81486c-1.16479,0.79366-2.47955,1.46224-3.82336,1.87915
	c-3.48804,1.08215-6.9978,2.13496-10.56061,2.91904c-1.87781,0.41325-2.87836,1.14744-3.4798,3.05856
	c-4.79291,15.22954-12.40753,29.00713-21.90839,41.77332c-1.37823,1.85204-2.34418,3.73476-2.23297,6.09362
	c0.39429,8.35669,0.80896,16.72401,3.02087,24.84055c0.81744,2.99945,1.95471,5.97348,3.38995,8.72772
	c1.9751,3.79039,4.73358,4.93732,8.84595,3.61205c2.5545-0.82329,5.04767-2.14989,7.24493-3.70676
	c5.37115-3.8056,9.77209-8.65456,13.73578-13.88315c1.89294-2.49704,3.935-4.95343,5.37067-7.70897
	c2.633-5.05391,6.72992-8.3119,11.44897-11.26454c14.87787-9.30883,33.08563-1.42368,36.19745,15.84886
	c2.00769,11.14397-0.59808,21.121-6.9588,30.45018c-7.59973,11.14616-17.83636,18.93546-29.74988,24.80249
	c-13.29755,6.54865-27.33765,10.99722-41.63458,14.73193c-18.59589,4.85782-37.47125,8.33656-56.48242,10.98259
	c-18.49377,2.57385-37.04202,4.78554-55.59921,6.86272c-12.32974,1.38016-24.71655,2.25089-37.07883,3.33836
	c-27.72971,2.43927-55.35059,5.59163-82.37015,12.64432c-3.02859,0.79054-6.02875,1.7061-9.00574,2.67537
	C337.70786,260.13953,333.45212,262.38806,322.98019,270.02963z M339.96823,164.38394
	c4.09204,0.41914,7.7319-0.7265,11.39597-1.45119c11.04437-2.1842,21.90475-5.08333,31.93042-10.31541
	c4.00394-2.08954,7.86487-4.71173,11.21762-7.72856c4.72202-4.2489,5.29395-9.97229,1.71115-15.23206
	c-1.87253-2.749-4.32965-5.3017-7.03067-7.2326c-3.25772-2.32884-6.88144-4.40866-10.65359-5.70038
	c-7.8829-2.69937-15.94611-4.88662-23.98016-7.12289c-2.83261-0.78844-5.79623-1.10601-8.95258-1.68493
	C342.72107,126.88034,338.65085,145.26144,339.96823,164.38394z M347.3468,98.57916
	c10.93265-2.21359,25.68399-7.1591,34.33481-11.78229c4.00977-2.14285,7.90161-4.61062,11.49545-7.38617
	c1.97739-1.5271,3.61362-3.81026,4.71667-6.08557c1.93298-3.98695,0.92905-7.16737-2.89957-9.34731
	c-2.80112-1.59492-5.84515-3.12734-8.96527-3.7243c-7.1568-1.36935-14.41193-2.27443-21.65689-3.11013
	c-3.06662-0.35373-6.2081-0.05899-9.85913-0.05899C352.15329,70.7476,349.79065,84.42821,347.3468,98.57916z M145.19995,219.48834
	c0.87038-2.45735,1.46904-5.03116,2.54892-7.3882c1.04225-2.27495,1.05542-4.74834,1.79115-7.09734
	c2.56572-8.19128,4.15184-16.66602,4.9958-25.49942c-0.75571,0.14249-1.06673,0.10811-1.23744,0.24663
	c-9.53302,7.73573-19.01439,15.53795-26.71688,25.20291c-4.73399,5.94012-8.90798,12.23213-11.35766,19.51776
	c-1.69466,5.04012-2.19844,10.19122-1.38241,15.44089c1.14214,7.34741,6.53507,9.95607,12.75763,5.97693
	c2.49201-1.59349,4.72594-3.69911,6.7719-5.86072 M209.12315,59.09075c-3.39636,12.17874-6.62268,24.42278-7.77588,37.06784
	c-0.49246,5.39968-0.53827,10.84007-0.78705,16.26196c0.31761,0.03123,0.63527,0.06246,0.9529,0.09372
	c0.23811-0.3045,0.51959-0.58443,0.70807-0.91705c9.27724-16.37554,17.30742-33.3114,22.87805-51.33504
	c3.08717-9.9884,5.68132-20.08459,5.57172-30.65333c-0.02383-2.29991,0.33255-5.16542-2.3544-6.09232
	c-2.70012-0.93143-4.59729,1.17981-6.25478,3.08929c-0.59651,0.68716-1.20239,1.40362-1.61856,2.20325
	c-1.62144,3.11556-3.50661,6.14981-4.67282,9.43468 M601.6015,35.88837c-3.23328,0.08261-4.84058,1.65343-6.09802,3.47157
	c-1.5498,2.24083-2.96417,4.60507-4.17267,7.04679c-4.35571,8.80012-7.24823,18.11481-9.41321,27.66764
	c-0.1861,0.82149-0.2373,1.67358-0.41864,3.00742c4.81128-0.53991,9.18616-1.00037,13.55151-1.53887
	c1.35852-0.16762,2.2973-0.80289,2.72394-2.34431c3.00281-10.84766,5.06055-21.82495,4.75238-33.13481
	C602.49005,38.71257,601.94434,37.37514,601.6015,35.88837z M256.09988,138.15466
	c8.57376-5.48877,15.1832-12.62081,19.20062-21.9803c0.40598-0.94584,0.7648-1.98048,0.82419-2.99277
	c0.13971-2.38307,1.04987-5.10452-1.64752-6.7029c-1.80801-1.07133-4.43097,0.1244-6.52026,3.04379
	C261.81628,118.10279,258.30698,127.81479,256.09988,138.15466z M434.20316,138.75079
	c8.45135-4.99411,16.6167-14.17742,19.59747-21.96291c0.81445-2.12713,1.22427-4.54115,1.21576-6.8213
	c-0.01367-3.67515-2.8728-5.01494-5.83649-2.79608c-1.41818,1.06176-2.7742,2.48665-3.57169,4.04697
	c-2.89096,5.65611-5.68494,11.37362-8.2077,17.20124C436.07956,131.47014,435.39926,134.79889,434.20316,138.75079z
	 M580.40558,87.55997c-2.21503,7.66949-3.75568,24.98282-2.60657,29.81937c6.71454-9.86576,12.0426-19.99737,15.92761-31.71478
	C588.77142,86.36963,584.46729,86.98206,580.40558,87.55997z"/>
<path d="M33.96381,120.77443c1.65166-2.09483,2.76648-3.49119,3.86282-4.90192
	C54.65905,94.21324,71.48847,72.55165,88.3214,50.89283c0.80125-1.03091,1.56894-2.09724,2.45721-3.04911
	c1.60263-1.7174,3.60098-2.60549,5.97643-2.28871c3.35339,0.44718,4.58157,2.35158,3.33767,5.51551
	c-0.85416,2.17258-1.92771,4.31311-3.23412,6.24407c-5.04704,7.45974-9.96457,15.02907-15.41168,22.19152
	c-11.54348,15.17867-23.39639,30.12187-35.10304,45.17673c-1.91634,2.46444-3.73342,5.00608-5.78363,7.76397
	c0.99779,0.84937,1.79745,1.64513,2.70624,2.28625c13.15686,9.28203,27.72689,15.56924,43.09469,20.08813
	c2.34328,0.68903,4.89521,0.71808,7.36113,0.9305c5.64084,0.4859,6.50925,2.95058,4.17587,7.97351
	c-1.28856,2.77377-3.73627,4.48495-6.7909,4.67674c-2.43486,0.15286-5.08714,0.20691-7.33311-0.57971
	c-9.5928-3.35966-19.22259-6.69592-28.54432-10.72264c-8.00486-3.45792-15.60866-7.84381-23.3951-11.80893
	c-0.32707-0.16661-0.70758-0.22835-1.55946-0.49327c-0.59735,3.40431-1.41015,6.65744-1.69945,9.95645
	c-0.72899,8.31271-1.84575,16.59825-1.1884,25.005c0.48049,6.14488-4.20491,10.69804-10.41742,10.66464
	c-2.76138-0.01485-4.16617-0.97252-4.80753-3.6299c-0.332-1.37561-0.36115-2.84686-0.36651-4.27547
	c-0.16335-43.4549,4.88954-86.24083,16.59298-128.15547c1.19015-4.2623,2.73151-8.43361,4.25756-12.59296
	c1.372-3.73952,3.99855-5.37331,8.1707-5.21792c8.22795,0.30649,10.44578,2.70368,8.71813,10.69194
	c-0.88043,4.0709-2.15824,8.06627-3.42897,12.0406c-5.86316,18.33733-9.64114,37.1186-12.10155,56.1855
	c-0.13361,1.03519-0.1853,2.08228-0.2396,3.12569C33.74541,118.97616,33.82922,119.36222,33.96381,120.77443z"/>
</svg>
