<svg version="1.1" id="Layer_1" xmlns="http://www.w3.org/2000/svg" xmlns:xlink="http://www.w3.org/1999/xlink" x="0px" y="0px"
	 viewBox="0 0 50.2393112 40.8272018" enable-background="new 0 0 50.2393112 40.8272018" xml:space="preserve">
<path d="M50.2393112,4.8326001c-1.8487129,0.8203001-3.8360023,1.3744998-5.9199104,1.6229997
	C46.4473076,5.1796999,48.0839996,3.1612,48.8516006,0.7535c-1.9892921,1.1811-4.1944008,2.04-6.5430031,2.5023999
	C40.4267998,1.251,37.7471008,0,34.7831993,0c-5.6924,0-10.3076,4.6157999-10.3076,10.3072004
	c0,0.8094997,0.091301,1.5941992,0.2660999,2.3480997C16.1763096,12.2271004,8.5824995,8.1240997,3.4970999,1.8853
	c-0.8862,1.5249001-1.3945,3.2943997-1.3945,5.1835999c0,3.5747004,1.8188,6.7319002,4.5834999,8.5785999
	c-1.6884999-0.0522003-3.2774-0.5186005-4.6675-1.2895002v0.1297998c0,4.9932013,3.5537095,9.1596994,8.2670994,10.1070013
	c-0.8638,0.2342987-1.7769003,0.3632984-2.7158999,0.3632984c-0.6626,0-1.3104906-0.0664997-1.9384003-0.1875
	C6.9424,28.8663006,10.7486,31.8448009,15.2583094,31.9307003C11.7328997,34.6944008,7.2890997,36.3428001,2.4566,36.3428001
	c-0.8306,0-1.6503999-0.0508003-2.4566-0.1445007c4.5611,2.9219017,9.9790001,4.6289024,15.802309,4.6289024
	c18.9574909,0,29.3246899-15.7031021,29.3246899-29.3252029c0-0.4453001-0.0116882-0.8900995-0.0283012-1.3354998
	C47.1083984,8.7159004,48.8544998,6.9004002,50.2393112,4.8326001z"/>
</svg>
